<?xml version="1.0" encoding="utf-8"?>
<!-- Generator: Adobe Illustrator 28.0.0, SVG Export Plug-In . SVG Version: 6.00 Build 0)  -->
<svg version="1.1" id="Layer_1" xmlns:sketch="http://www.bohemiancoding.com/sketch/ns"
	 xmlns="http://www.w3.org/2000/svg" xmlns:xlink="http://www.w3.org/1999/xlink" x="0px" y="0px" viewBox="0 0 800 800"
	 style="enable-background:new 0 0 800 800;" xml:space="preserve">
<style type="text/css">
	.st0{fill-rule:evenodd;clip-rule:evenodd;fill:#FDFDFD;}
</style>
<g id="Page-1" sketch:type="MSPage">
	<g id="Icon-Set" transform="translate(-308.000000, -1087.000000)" sketch:type="MSLayerGroup">
		<path id="arrow-right-circle" sketch:type="MSShapeGroup" class="st0" d="M708,1837c-193.3,0-350-156.8-350-350s156.7-350,350-350
			s350,156.8,350,350S901.3,1837,708,1837L708,1837z M708,1087c-220.9,0-400,179-400,400s179.1,400,400,400s400-179,400-400
			S928.9,1087,708,1087L708,1087z M871.4,1465L730,1323.5c-9.8-9.8-25.6-9.8-35.4,0c-9.8,10-9.8,25.8,0,35.5l103,103H533
			c-13.8,0-25,11.2-25,25s11.2,25,25,25h264.6l-103,103c-9.8,9.8-9.8,25.8,0,35.5c9.8,9.8,25.6,9.8,35.4,0L871.4,1509
			c6-6,7.9-14.2,6.5-22C879.3,1479.2,877.4,1471,871.4,1465L871.4,1465z"/>
	</g>
</g>
</svg>
